# Blender v2.82 (sub 7) OBJ File: ''
# www.blender.org
mtllib prism.mtl
o prism
v 0.183892 -0.193936 -0.013271
v 0.000000 -0.193936 0.305241
v -0.183892 -0.193936 -0.013271
v 0.000000 0.193936 0.305241
v -0.183892 0.193936 -0.013271
v 0.183892 0.193936 -0.013271
vt 0.416700 0.000000
vt 0.083300 0.000000
vt -0.250000 0.000000
vt 0.083300 1.000000
vt -0.250000 1.000000
vt 0.416700 1.000000
vt 0.750000 0.000000
vt 0.750000 1.000000
vt 0.333300 1.000000
vn 0.0000 -1.0000 0.0000
vn -0.8660 -0.0000 0.5000
vn 0.8660 -0.0000 0.5000
vn 0.0000 0.0000 -1.0000
vn 0.0000 1.0000 0.0000
usemtl Default_OBJ
s 1
f 1/1/1 2/2/1 3/3/1
f 3/3/2 2/2/2 4/4/2 5/5/2
f 2/2/3 1/1/3 6/6/3 4/4/3
f 1/1/4 3/7/4 5/8/4 6/6/4
f 6/6/5 5/8/5 4/9/5
