# Blender v2.82 (sub 7) OBJ File: ''
# www.blender.org
mtllib rubik.mtl
o rubik
v -0.009622 0.013923 0.009622
v 0.009622 0.013923 0.009622
v 0.009622 0.033167 0.009622
v -0.009622 0.033167 0.009622
v 0.009622 0.033167 -0.009622
v -0.009622 0.033167 -0.009622
v 0.009622 0.013923 -0.009622
v -0.009622 0.013923 -0.009622
vt 0.250498 0.001992
vt 0.499502 0.001992
vt 0.499502 0.250996
vt 0.250498 0.250996
vt 0.499502 0.500000
vt 0.250498 0.500000
vt 0.499502 0.749004
vt 0.250498 0.749004
vt 0.499502 0.998008
vt 0.250498 0.998008
vt 0.748506 0.001992
vt 0.748506 0.250996
vt 0.001494 0.001992
vt 0.001494 0.250996
vn 0.0000 -0.0000 1.0000
vn 0.0000 1.0000 0.0000
vn 0.0000 0.0000 -1.0000
vn 0.0000 -1.0000 -0.0000
vn 1.0000 0.0000 0.0000
vn -1.0000 0.0000 0.0000
usemtl Default_OBJ
s 1
f 1/1/1 2/2/1 3/3/1 4/4/1
f 4/4/2 3/3/2 5/5/2 6/6/2
f 6/6/3 5/5/3 7/7/3 8/8/3
f 8/8/4 7/7/4 2/9/4 1/10/4
f 2/2/5 7/11/5 5/12/5 3/3/5
f 8/13/6 1/1/6 4/4/6 6/14/6
