# Blender v2.82 (sub 7) OBJ File: ''
# www.blender.org
mtllib book.mtl
o binding_binding
v -0.050000 -0.065535 -0.010227
v -0.050000 0.065535 0.010227
v -0.050000 -0.065535 0.010227
v -0.050000 0.065535 -0.010227
v -0.050888 -0.065535 -0.010227
v -0.050888 0.065535 -0.010227
v -0.050888 0.065535 0.010227
v -0.050888 -0.065535 0.010227
vt 0.983655 0.458318
vt 0.983412 0.794394
vt 0.016556 0.794182
vt 0.016785 0.458318
vt 0.016548 0.108108
vt 0.983478 0.108242
vt 0.983482 0.444007
vt 0.016588 0.444149
vt 0.010262 0.790888
vt 0.010342 0.461428
vt 0.983466 0.808759
vt 0.016514 0.808557
vt 0.989834 0.462036
vt 0.989709 0.791199
vn 0.5773 0.5773 -0.5773
vn 0.5773 0.5773 0.5773
vn 0.5773 -0.5773 0.5773
vn 0.5773 -0.5773 -0.5773
vn -0.5773 -0.5773 0.5773
vn -0.5773 0.5773 0.5773
vn -0.5773 0.5773 -0.5773
vn -0.5773 -0.5773 -0.5773
usemtl binding_binding_diffuse.tga
s 1
f 4/1/1 2/2/2 3/3/3 1/4/4
f 8/5/5 7/6/6 6/7/7 5/8/8
f 8/9/5 5/10/8 1/4/4 3/3/3
f 5/8/8 6/7/7 4/1/1 1/4/4
f 7/11/6 8/12/5 3/3/3 2/2/2
f 4/1/1 6/13/7 7/14/6 2/2/2
o cover_cover
v -0.050826 0.067011 0.010542
v -0.050935 0.067224 0.010701
v -0.050826 -0.067011 0.010542
v -0.050935 -0.067224 0.010700
v -0.051592 -0.067224 0.011651
v -0.051592 0.067224 0.011651
v -0.051701 -0.067011 0.011810
v -0.051701 0.067011 0.011810
v 0.052279 0.067011 0.010746
v 0.052279 0.067011 0.012006
v 0.052279 -0.067011 0.010746
v 0.052279 -0.067011 0.012006
v 0.052279 -0.067011 -0.012006
v 0.052279 0.067011 -0.012006
v 0.052279 0.067011 -0.010746
v 0.052279 -0.067011 -0.010746
v -0.051701 0.067011 -0.011810
v -0.051592 0.067224 -0.011651
v -0.051701 -0.067011 -0.011810
v -0.051592 -0.067224 -0.011651
v -0.050935 0.067224 -0.010700
v -0.050935 -0.067224 -0.010701
v -0.050826 -0.067011 -0.010542
v -0.050826 0.067011 -0.010542
vt 0.548374 0.450823
vt 0.027548 0.450417
vt 0.029304 0.450206
vt 0.029300 0.541991
vt 0.027547 0.541782
vt 0.548228 0.542366
vt 0.546564 0.542543
vt 0.546710 0.450641
vt 0.540353 0.937196
vt 0.034617 0.936718
vt 0.035707 0.543109
vt 0.540161 0.543475
vt 0.541742 0.449795
vt 0.540304 0.449690
vt 0.541259 0.055841
vt 0.541598 0.543375
vt 0.034612 0.943185
vt 0.540346 0.943662
vt 0.541265 0.049372
vt 0.035392 0.055348
vt 0.035398 0.048880
vt 0.035729 0.449091
vt 0.034359 0.449188
vt 0.034341 0.543012
vn 0.5840 0.2831 -0.7607
vn 0.5841 -0.2831 -0.7607
vn 0.3734 -0.8565 -0.3562
vn 0.3734 -0.8565 0.3562
vn 0.5841 -0.2830 0.7607
vn 0.5840 0.2831 0.7607
vn 0.3735 0.8565 0.3562
vn 0.3735 0.8565 -0.3562
vn 0.5773 0.5766 -0.5781
vn 0.5773 -0.5766 -0.5781
vn -0.6779 -0.1981 -0.7079
vn -0.6779 0.1981 -0.7079
vn -0.5633 0.7169 0.4107
vn -0.6779 0.1981 0.7079
vn 0.5773 0.5766 0.5781
vn -0.5633 0.7169 -0.4107
vn 0.5784 -0.5768 0.5768
vn 0.5783 0.5768 0.5769
vn 0.5783 0.5768 -0.5769
vn 0.5773 -0.5766 0.5781
vn 0.5783 -0.5768 -0.5769
vn -0.6779 -0.1981 0.7079
vn -0.5633 -0.7169 0.4107
vn -0.5633 -0.7170 -0.4107
usemtl cover_cover_diffuse.tga
s 1
f 9/15/9 11/16/10 12/17/11 30/18/12 31/19/13 32/20/14 29/21/15 10/22/16
f 22/23/17 21/24/18 27/25/19 25/26/20
f 14/27/21 16/28/22 18/29/23
f 22/23/17 25/26/20 26/30/24
f 24/31/25 31/19/13 30/18/12
f 23/32/26 29/21/15 32/20/14
f 17/33/27 18/29/23 20/34/28 19/35/29
f 15/36/30 13/37/31 20/34/28
f 16/28/22 15/36/30 20/34/28 18/29/23
f 23/32/26 24/31/25 21/24/18 22/23/17
f 18/29/23 17/33/27 10/22/16 29/21/15 23/32/26 22/23/17 26/30/24 14/27/21
f 21/24/18 24/31/25 30/18/12 12/17/11 19/35/29 20/34/28 13/37/31 28/38/32
f 23/32/26 32/20/14 31/19/13 24/31/25
f 12/17/11 11/16/10 19/35/29
f 15/36/30 16/28/22 14/27/21 26/30/24 25/26/20 27/25/19 28/38/32 13/37/31
f 21/24/18 28/38/32 27/25/19
f 11/16/10 9/15/9 17/33/27 19/35/29
f 9/15/9 10/22/16 17/33/27
o pages_pages
v 0.049852 0.064878 -0.010410
v 0.049852 0.064878 0.010410
v 0.049852 -0.064878 -0.010410
v -0.049904 -0.064878 -0.010410
v -0.049904 0.064878 0.010410
v -0.049904 -0.064878 0.010410
v 0.049852 -0.064878 0.010410
v -0.049904 0.064878 -0.010410
vt 0.544435 0.015585
vt 0.990669 0.015295
vt 0.991046 0.595398
vt 0.544812 0.595689
vt 0.455188 0.015643
vt 0.455566 0.595747
vt 0.009332 0.596038
vt 0.008954 0.015934
vt 0.008691 0.628115
vt 0.305689 0.628107
vt 0.305690 0.980017
vt 0.008691 0.980022
vt 0.691793 0.979946
vt 0.691791 0.628033
vt 0.988801 0.979879
vt 0.988798 0.627961
vn -0.5773 0.5773 -0.5773
vn 0.5773 0.5773 -0.5773
vn 0.5773 -0.5773 -0.5773
vn -0.5773 -0.5773 -0.5773
vn -0.5773 0.5773 0.5773
vn -0.5773 -0.5773 0.5773
vn 0.5773 -0.5773 0.5773
vn 0.5773 0.5773 0.5773
usemtl pages_pages_diffuse.tga
s 1
f 40/39/33 33/40/34 35/41/35 36/42/36
f 37/43/37 40/39/33 36/42/36 38/44/38
f 37/43/37 38/44/38 39/45/39 34/46/40
f 36/47/36 35/48/35 39/49/39 38/50/38
f 34/51/40 39/49/39 35/48/35 33/52/34
f 37/53/37 34/51/40 33/52/34 40/54/33
